<svg xmlns="http://www.w3.org/2000/svg" width="22" height="22" viewBox="0 0 22 22" fill="none">
  <path d="M9.25 11.875H3.125C2.89294 11.875 2.67038 11.9672 2.50628 12.1313C2.34219 12.2954 2.25 12.5179 2.25 12.75V18.875C2.25 19.1071 2.34219 19.3296 2.50628 19.4937C2.67038 19.6578 2.89294 19.75 3.125 19.75H9.25C9.48206 19.75 9.70462 19.6578 9.86872 19.4937C10.0328 19.3296 10.125 19.1071 10.125 18.875V12.75C10.125 12.5179 10.0328 12.2954 9.86872 12.1313C9.70462 11.9672 9.48206 11.875 9.25 11.875ZM8.375 18H4V13.625H8.375V18ZM18.875 2.25H12.75C12.5179 2.25 12.2954 2.34219 12.1313 2.50628C11.9672 2.67038 11.875 2.89294 11.875 3.125V9.25C11.875 9.48206 11.9672 9.70462 12.1313 9.86872C12.2954 10.0328 12.5179 10.125 12.75 10.125H18.875C19.1071 10.125 19.3296 10.0328 19.4937 9.86872C19.6578 9.70462 19.75 9.48206 19.75 9.25V3.125C19.75 2.89294 19.6578 2.67038 19.4937 2.50628C19.3296 2.34219 19.1071 2.25 18.875 2.25ZM18 8.375H13.625V4H18V8.375ZM18.875 11.875H12.75C12.5179 11.875 12.2954 11.9672 12.1313 12.1313C11.9672 12.2954 11.875 12.5179 11.875 12.75V18.875C11.875 19.1071 11.9672 19.3296 12.1313 19.4937C12.2954 19.6578 12.5179 19.75 12.75 19.75H18.875C19.1071 19.75 19.3296 19.6578 19.4937 19.4937C19.6578 19.3296 19.75 19.1071 19.75 18.875V12.75C19.75 12.5179 19.6578 12.2954 19.4937 12.1313C19.3296 11.9672 19.1071 11.875 18.875 11.875ZM18 18H13.625V13.625H18V18ZM9.25 2.25H3.125C2.89294 2.25 2.67038 2.34219 2.50628 2.50628C2.34219 2.67038 2.25 2.89294 2.25 3.125V9.25C2.25 9.48206 2.34219 9.70462 2.50628 9.86872C2.67038 10.0328 2.89294 10.125 3.125 10.125H9.25C9.48206 10.125 9.70462 10.0328 9.86872 9.86872C10.0328 9.70462 10.125 9.48206 10.125 9.25V3.125C10.125 2.89294 10.0328 2.67038 9.86872 2.50628C9.70462 2.34219 9.48206 2.25 9.25 2.25ZM8.375 8.375H4V4H8.375V8.375Z" fill="white"/>
</svg>