<svg xmlns="http://www.w3.org/2000/svg" width="22" height="22" viewBox="0 0 22 22" fill="none">
  <g clip-path="url(#clip0_2454_15269)">
    <path d="M15.375 19.4263H4.875C4.17881 19.4263 3.51113 19.1497 3.01884 18.6574C2.52656 18.1651 2.25 17.4975 2.25 16.8013V9.80127C2.25 9.56921 2.15781 9.34665 1.99372 9.18255C1.82962 9.01846 1.60706 8.92627 1.375 8.92627C1.14294 8.92627 0.920376 9.01846 0.756282 9.18255C0.592187 9.34665 0.5 9.56921 0.5 9.80127L0.5 16.8013C0.5 17.9616 0.960936 19.0744 1.78141 19.8949C2.60188 20.7153 3.71468 21.1763 4.875 21.1763H15.375C15.6071 21.1763 15.8296 21.0841 15.9937 20.92C16.1578 20.7559 16.25 20.5333 16.25 20.3013C16.25 20.0692 16.1578 19.8466 15.9937 19.6826C15.8296 19.5185 15.6071 19.4263 15.375 19.4263ZM18.875 3.67627H6.625C5.92881 3.67627 5.26113 3.95283 4.76884 4.44511C4.27656 4.9374 4 5.60508 4 6.30127V15.0513C4 15.7475 4.27656 16.4151 4.76884 16.9074C5.26113 17.3997 5.92881 17.6763 6.625 17.6763H18.875C19.5712 17.6763 20.2389 17.3997 20.7312 16.9074C21.2234 16.4151 21.5 15.7475 21.5 15.0513V6.30127C21.5 5.60508 21.2234 4.9374 20.7312 4.44511C20.2389 3.95283 19.5712 3.67627 18.875 3.67627ZM18.5163 5.42627L13.3713 10.5713C13.2899 10.6533 13.1931 10.7184 13.0865 10.7628C12.9799 10.8072 12.8655 10.8301 12.75 10.8301C12.6345 10.8301 12.5201 10.8072 12.4135 10.7628C12.3069 10.7184 12.2101 10.6533 12.1287 10.5713L6.98375 5.42627H18.5163ZM19.75 15.0513C19.75 15.2833 19.6578 15.5059 19.4937 15.67C19.3296 15.8341 19.1071 15.9263 18.875 15.9263H6.625C6.39294 15.9263 6.17038 15.8341 6.00628 15.67C5.84219 15.5059 5.75 15.2833 5.75 15.0513V6.62502L10.895 11.77C11.3872 12.2616 12.0544 12.5377 12.75 12.5377C13.4456 12.5377 14.1128 12.2616 14.605 11.77L19.75 6.62502V15.0513Z" fill="white"/>
  </g>
  <defs>
    <clipPath id="clip0_2454_15269">
      <rect width="21" height="21" fill="white" transform="translate(0.5 0.5)"/>
    </clipPath>
  </defs>
</svg>